<svg class="diagram-root" style="background: #f5f6f6" xmlns="http://www.w3.org/2000/svg" xmlns:xlink="http://www.w3.org/1999/xlink"><style>.diagram-root { font-family: "Helvetica Neue", sans-serif; font-size: 12px; } .t { overflow: visible; } .t-bg { y: 40; fill: #fff;   } .th { fill: #005aa0;   } .tht { fill: #fff; font-size: 14px;  } .tf { fill: #323c46; overflow: visible; } .tf.pk { fill: #005aa0; font-weight: bold; } .tf.fk { font-weight: bold; } .ty { fill: #adb1b5; font-weight: normal; text-anchor: end; } .r { fill: transparent; stroke: #c3c3c3; stroke-width: 1; } .l { stroke: 1; } .i { fill: #c2c7ce; stroke: #c2c7ce; } .i.ix { fill: #afb3b6; stroke: #000; } .fa { fill: transparent; overflow: visible; } .fa .bg.hover { fill: #f7f7f7; } .c { cy: 12; r: 4; stroke: #d2d2dc; fill: #d2d2dc; } .hr { fill: transparent; stroke: #323c46; stroke-opacity: 0.035; stroke-width: 13; } .dc { stroke: #fa5a3c; fill: #fa5a3c; } .x { stroke: white; stroke-width: 1; } .hl .th { fill: #1b9bff; } .hl .tht {  } .fhl .bg { fill: #e7f4ff; } .fhls .bg {  } .r.hl { stroke: #1b9bff; } .dim { opacity: 0.25; }</style><g class="drawing-wrapper" transform="translate(2, 18) scale(1,1)"><g class="rs"><path d="M 250 112 m -1, 0 a 1,1 0 1,0 2,0 a 1,1 0 1,0 -2,0 M 250 112 m -0.5, 0 a 0.5,0.5 0 1,0 1,0 a 0.5,0.5 0 1,0 -1,0  M250 112 L250 112 262 112 M256 118 L256 118 256 106 M262 112 Q 287.61 112, 313.21 111.45 T 364.42 110.89 M 376.42 110.89 m -1, 0 a 1,1 0 1,0 2,0 a 1,1 0 1,0 -2,0 M 376.42 110.89 m -0.5, 0 a 0.5,0.5 0 1,0 1,0 a 0.5,0.5 0 1,0 -1,0  M376.42 110.89 L376.42 110.89 364.42 110.89 M370.42 116.89 L370.42 116.89 370.42 104.89" id="h403793656" class="r"></path><path d="M 250 387 m -1, 0 a 1,1 0 1,0 2,0 a 1,1 0 1,0 -2,0 M 250 387 m -0.5, 0 a 0.5,0.5 0 1,0 1,0 a 0.5,0.5 0 1,0 -1,0  M250 387 L250 387 262 387 M 250 393 m -1, 0 a 1,1 0 1,0 2,0 a 1,1 0 1,0 -2,0 M 250 393 m -0.5, 0 a 0.5,0.5 0 1,0 1,0 a 0.5,0.5 0 1,0 -1,0  M250 393 L250 393 257 387 250 381 M 250 381 m -1, 0 a 1,1 0 1,0 2,0 a 1,1 0 1,0 -2,0 M 250 381 m -0.5, 0 a 0.5,0.5 0 1,0 1,0 a 0.5,0.5 0 1,0 -1,0  M262 387 Q 284.98 387, 307.96 361.54 T 353.91 336.09 M 365.91 336.09 m -1, 0 a 1,1 0 1,0 2,0 a 1,1 0 1,0 -2,0 M 365.91 336.09 m -0.5, 0 a 0.5,0.5 0 1,0 1,0 a 0.5,0.5 0 1,0 -1,0  M365.91 336.09 L365.91 336.09 353.91 336.09 M359.91 342.09 L359.91 342.09 359.91 330.09" id="h304082562" class="r"></path><path d="M 250 412 m -1, 0 a 1,1 0 1,0 2,0 a 1,1 0 1,0 -2,0 M 250 412 m -0.5, 0 a 0.5,0.5 0 1,0 1,0 a 0.5,0.5 0 1,0 -1,0  M250 412 L250 412 262 412 M 250 418 m -1, 0 a 1,1 0 1,0 2,0 a 1,1 0 1,0 -2,0 M 250 418 m -0.5, 0 a 0.5,0.5 0 1,0 1,0 a 0.5,0.5 0 1,0 -1,0  M250 418 L250 418 257 412 250 406 M 250 406 m -1, 0 a 1,1 0 1,0 2,0 a 1,1 0 1,0 -2,0 M 250 406 m -0.5, 0 a 0.5,0.5 0 1,0 1,0 a 0.5,0.5 0 1,0 -1,0  M262 412 Q 284.75 412, 307.5 433.59 T 353 455.18 M 365 455.18 m -1, 0 a 1,1 0 1,0 2,0 a 1,1 0 1,0 -2,0 M 365 455.18 m -0.5, 0 a 0.5,0.5 0 1,0 1,0 a 0.5,0.5 0 1,0 -1,0  M365 455.18 L365 455.18 353 455.18 M359 461.18 L359 461.18 359 449.18" id="h1054157934" class="r"></path></g><g class="hrs"></g><g class="ts"><svg width="220" height="400" x="30" y="30" id="h3257514455" class="t"><rect height="40" width="220" class="th"></rect><text x="13" y="25" class="tht">campaign</text><rect height="360" width="220" class="t-bg" y="40"></rect><text x="13" y="61" class="tf pk">cf_id<tspan x="207" class="ty">INT</tspan></text><path d="M7,14A2,2 0 0,1 5,12A2,2 0 0,1 7,10A2,2 0 0,1 9,12A2,2 0 0,1 7,14M12.65,10C11.83,7.67 9.61,6 7, 6A6, 6 0 0, 0 1, 12A6, 6 0 0, 0 7, 18C9.61, 18 11.83, 16.33 12.65, 14H17V18H21V14H23V10H12.65Z" class="i pk" transform="translate(168, 48) scale(0.65)"></path><text x="13" y="86" class="tf fk">contact_id<tspan x="207" class="ty">INT</tspan></text><text x="13" y="111" class="tf">company_name<tspan x="207" class="ty">VARCHAR(255)</tspan></text><text x="13" y="136" class="tf">descripton<tspan x="207" class="ty">VARCHAR(255)</tspan></text><text x="13" y="161" class="tf">goal<tspan x="207" class="ty">DECIMAL</tspan></text><text x="13" y="186" class="tf">pledged<tspan x="207" class="ty">DECIMAL</tspan></text><text x="13" y="211" class="tf">outcome<tspan x="207" class="ty">VARCHAR(255)</tspan></text><text x="13" y="236" class="tf">backers_count<tspan x="207" class="ty">INT</tspan></text><text x="13" y="261" class="tf">country<tspan x="207" class="ty">VARCHAR(2)</tspan></text><text x="13" y="286" class="tf">currency<tspan x="207" class="ty">VARCHAR(3)</tspan></text><text x="13" y="311" class="tf">launched_date<tspan x="207" class="ty">DATE</tspan></text><text x="13" y="336" class="tf">end_date<tspan x="207" class="ty">DATE</tspan></text><text x="13" y="361" class="tf fk">category_id<tspan x="207" class="ty">VARCHAR(10)</tspan></text><text x="13" y="386" class="tf fk">subcategory_id<tspan x="207" class="ty">VARCHAR(10)</tspan></text></svg><svg width="190" height="150" x="376.42" y="53.89" id="h4144639668" class="t"><rect height="40" width="190" class="th"></rect><text x="13" y="25" class="tht">contacts</text><rect height="110" width="190" class="t-bg" y="40"></rect><text x="13" y="61" class="tf pk">contact_id<tspan x="177" class="ty">INT</tspan></text><path d="M7,14A2,2 0 0,1 5,12A2,2 0 0,1 7,10A2,2 0 0,1 9,12A2,2 0 0,1 7,14M12.65,10C11.83,7.67 9.61,6 7, 6A6, 6 0 0, 0 1, 12A6, 6 0 0, 0 7, 18C9.61, 18 11.83, 16.33 12.65, 14H17V18H21V14H23V10H12.65Z" class="i pk" transform="translate(138, 48) scale(0.65)"></path><text x="13" y="86" class="tf">first_name<tspan x="177" class="ty">VARCHAR(255)</tspan></text><text x="13" y="111" class="tf">last_name<tspan x="177" class="ty">VARCHAR(255)</tspan></text><text x="13" y="136" class="tf">email<tspan x="177" class="ty">VARCHAR(255)</tspan></text></svg><svg width="207" height="100" x="365.91" y="279.09" id="h2794354149" class="t"><rect height="40" width="207" class="th"></rect><text x="13" y="25" class="tht">category</text><rect height="60" width="207" class="t-bg" y="40"></rect><text x="13" y="61" class="tf pk">category_id<tspan x="194" class="ty">VARCHAR(10)</tspan></text><path d="M7,14A2,2 0 0,1 5,12A2,2 0 0,1 7,10A2,2 0 0,1 9,12A2,2 0 0,1 7,14M12.65,10C11.83,7.67 9.61,6 7, 6A6, 6 0 0, 0 1, 12A6, 6 0 0, 0 7, 18C9.61, 18 11.83, 16.33 12.65, 14H17V18H21V14H23V10H12.65Z" class="i pk" transform="translate(96, 48) scale(0.65)"></path><text x="13" y="86" class="tf">category<tspan x="194" class="ty">VARCHAR(255)</tspan></text></svg><svg width="228" height="100" x="365" y="398.18" id="h1568904301" class="t"><rect height="40" width="228" class="th"></rect><text x="13" y="25" class="tht">subcategory</text><rect height="60" width="228" class="t-bg" y="40"></rect><text x="13" y="61" class="tf pk">subcategory_id<tspan x="215" class="ty">VARCHAR(10)</tspan></text><path d="M7,14A2,2 0 0,1 5,12A2,2 0 0,1 7,10A2,2 0 0,1 9,12A2,2 0 0,1 7,14M12.65,10C11.83,7.67 9.61,6 7, 6A6, 6 0 0, 0 1, 12A6, 6 0 0, 0 7, 18C9.61, 18 11.83, 16.33 12.65, 14H17V18H21V14H23V10H12.65Z" class="i pk" transform="translate(117, 48) scale(0.65)"></path><text x="13" y="86" class="tf">subcategory<tspan x="215" class="ty">VARCHAR(255)</tspan></text></svg></g></g><text class="qdbd-link" x="10" y="20">www.quickdatabasediagrams.com</text></svg>